<svg xmlns="http://www.w3.org/2000/svg" width="80" height="31" viewBox="0 0 80 31" fill="none">
<path d="M65.8528 10.2667C65.9111 10.1667 65.85 10.0917 65.7222 10.0917C65.0583 10.0917 64.1889 10.0944 63.5 10.0944C63.3361 10.0944 63.25 10.1139 63.1722 10.2667C62.9167 10.7556 59.8083 15.4139 59.2306 16.3167C59.1333 16.4556 59.0139 16.4361 59 16.2778C58.9417 15.7417 58.4778 15.1222 57.7472 14.8278C57.1917 14.6028 56.6444 14.5611 56.0806 14.6361C55.0583 14.7722 54.1472 15.3139 53.3472 15.9194C52.1417 16.8361 51.1 18.025 49.7556 18.9056C49.0222 19.3833 48.0167 19.8 47.3444 19.1778C46.7361 18.6139 46.8056 17.3611 47.7361 16.3917C47.8333 16.2889 47.9528 16.375 47.9333 16.4667C47.8444 16.9056 47.9528 17.3417 48.2861 17.6472C48.6917 18.0111 49.2722 18.0528 49.7694 17.8083C50.3556 17.5167 50.7 16.9556 50.8028 16.3194C50.9583 15.3306 50.1972 14.4583 49.2444 14.3889C48.4694 14.3333 47.7278 14.6028 47.0056 15.2C46.6444 15.5 46.4361 15.7222 46.125 16.1694C46.05 16.2778 45.9306 16.2889 45.9361 16.1278C45.9722 14.8611 45.45 14.15 44.4028 14.125C43.5917 14.1056 42.7222 14.5472 42.0472 15.0861C41.3056 15.6806 40.6583 16.4722 39.9639 17.2139C39.8778 17.3056 39.8028 17.3 39.7778 17.1222C39.7556 16.2833 39.5472 15.4722 39.1583 14.8944C39.0222 14.6944 38.7333 14.5944 38.4889 14.7306C38.3778 14.7917 37.9861 14.9722 37.7028 15.2C37.5611 15.3167 37.5083 15.4833 37.5694 15.7C37.9444 16.9528 37.8611 18.3778 37.3528 19.5806C36.8861 20.6833 35.9778 21.6778 34.9111 22.0139C34.2083 22.2361 33.4778 22.1278 33.025 21.5056C32.4056 20.6472 32.6556 19.15 33.5806 17.9111C34.3972 16.8194 35.5778 16.125 36.7556 15.6778C36.8944 15.625 36.9222 15.5361 36.8833 15.4167C36.8194 15.2222 36.7167 14.9583 36.675 14.8389C36.5667 14.5528 36.2639 14.5056 35.8944 14.5444C35.0389 14.6444 34.2667 14.9361 33.5028 15.3444C31.5056 16.4139 30.5056 18.4833 30.0667 19.5917C29.8556 20.125 29.675 20.4556 29.4417 20.75C29.1278 21.1444 28.7306 21.5056 28.0083 22.1417C27.9417 22.2 27.8944 22.3222 27.95 22.4333C28.025 22.5861 28.4 23.1167 28.5056 23.1639C28.6222 23.2222 28.7611 23.1417 28.8139 23.1028C29.3194 22.7611 29.925 22.2167 30.2222 21.8472C30.325 21.7222 30.4333 21.775 30.4889 21.9667C30.7667 22.9528 31.4889 23.7583 32.4889 24.0944C34.3194 24.7111 36.2194 23.8167 37.6528 22.2611C38.5639 21.2722 38.8917 20.6361 39.2417 20.2028C39.8333 19.4694 41 17.8278 42.3917 16.775C42.9028 16.3861 43.5056 16.0917 43.8083 16.2861C44.0528 16.4444 44.1306 16.8111 43.7389 17.5222C42.3222 20.1111 40.2361 23.1528 39.8528 23.8917C39.7833 24.0194 39.8444 24.1194 39.9778 24.1194C40.7194 24.1167 41.4556 24.1167 42.1278 24.1167C42.2389 24.1111 42.2889 24.0611 42.3472 23.9806C43.4361 22.2778 44.4583 20.6556 45.5556 18.9806C45.6167 18.8806 45.6722 18.9583 45.675 19.0028C45.6972 19.3917 45.7944 19.925 46.025 20.2722C46.4389 20.9167 47.0278 21.1944 47.6806 21.2C48.2 21.2056 48.4611 21.1278 49.0222 20.9194C49.4778 20.75 49.8444 20.5278 50.1222 20.3278C50.2861 20.2139 50.3139 20.4056 50.3111 20.4333C50.0583 21.7861 50.3694 23.3861 51.7139 24.0528C53.3222 24.8444 55.0889 23.7306 56.1056 22.725C56.2056 22.6278 56.3111 22.6389 56.3222 22.8472C56.3444 23.2306 56.5167 23.6861 56.8361 24.0056C57.6889 24.8611 59.4056 24.5222 61.1306 23.1861C62.2389 22.3306 63.3972 21.1222 64.4444 19.8444C64.4833 19.7944 64.5111 19.7167 64.4361 19.6361C64.2778 19.4694 64.0472 19.2778 63.8889 19.1306C63.8167 19.0694 63.7111 19.0861 63.65 19.1333C62.5778 20.1528 61.6111 21.3167 60.2139 22.2806C59.7444 22.6083 58.9917 22.875 58.6556 22.4194C58.525 22.2417 58.5389 21.9972 58.6694 21.675C59.075 20.6583 65.5194 10.8444 65.8528 10.2667ZM57.3361 18.4944C57.35 18.5694 57.4472 18.6417 57.5444 18.6778C57.5778 18.6889 57.5972 18.7139 57.5583 18.7944C57.2833 19.3806 57.0333 19.7194 56.6889 20.2306C56.3722 20.7028 56.0167 21.0694 55.5861 21.4222C54.9361 21.9611 54.0333 22.5444 53.2861 22.1528C52.9556 21.9806 52.8111 21.5167 52.8167 21.1417C52.8333 20.0861 53.3028 19 54.1694 17.9361C55.2278 16.6333 56.3972 15.9583 57.1639 16.3278C57.9583 16.7056 57.7056 17.625 57.35 18.3472C57.3222 18.4028 57.3194 18.45 57.3361 18.4944ZM19.1083 24.0806C16.7056 24.0972 14.5889 22.6111 14.3444 20.0417C14.2083 18.6167 14.6111 17.3472 15.4194 16.3028C16.1333 15.3722 17.3444 14.5972 18.3694 14.4083C18.7028 14.3472 19.15 14.3861 19.3361 14.6056C19.6278 14.9444 19.5417 15.3139 19.2528 15.4639C18.4722 15.8639 17.5306 16.5472 17.0639 17.4778C16.6861 18.2389 16.6111 19.1583 17.1861 20.0306C18.15 21.4889 20.8417 21.5278 23.3417 19.2028C23.9611 18.6333 24.5139 18.0889 25.0778 17.4417C26.1806 16.1833 26.5444 15.7222 28.0111 13.6917C28.0278 13.6694 28.0333 13.6361 28.025 13.6222C28.0139 13.5972 27.9917 13.5889 27.95 13.5861C26.9722 13.6139 26.1194 13.9056 25.2917 14.525C25.0528 14.7 24.7111 14.675 24.5583 14.4444C24.3917 14.1861 24.5111 13.8472 24.7861 13.6583C26.1194 12.7306 27.575 12.5639 29.0611 12.3139C29.0611 12.3139 29.1639 12.3194 29.25 12.2056C29.8611 11.4222 30.3222 10.7167 30.9722 9.925C31.6278 9.12222 32.475 8.38333 33.1222 7.83056C34.025 7.05278 34.6028 6.79167 35.1917 6.47222C35.3472 6.39167 35.1722 6.29444 35.125 6.29444C31.8389 5.67778 28.425 4.87778 25.1611 6.08611C22.9028 6.93056 21.9111 8.72222 22.3889 9.91945C22.7278 10.7694 23.8444 10.9056 24.8917 10.3944C25.7611 9.96944 26.5639 9.28333 27.1333 8.4C27.4528 7.91111 28.125 8.26389 27.7611 9.11389C26.8056 11.3583 24.9806 13.1389 22.7583 13.2139C20.8667 13.275 19.6472 11.8833 19.65 10.1667C19.6583 6.78056 23.4278 4.55278 27.3861 4.21667C32.1556 3.82222 36.6722 5.09167 41.4083 5.66667C45.0361 6.10556 48.5167 6.11667 52.1611 5.27778C52.5917 5.18333 52.8944 5.45833 52.8667 5.89444C52.8306 6.525 52.3444 7.13056 51.1417 7.78611C49.775 8.53611 48.3472 8.76111 46.8528 8.775C43.2444 8.80556 39.8806 7.39722 36.4028 6.64167C36.4083 6.79444 36.4472 6.975 36.3194 7.07222C34.3917 8.49444 32.65 9.93611 31.4833 11.9639C31.4444 12.0111 31.4667 12.0556 31.5333 12.05C32.5472 11.9972 33.4583 11.9694 34.4028 11.8944C34.5667 11.8806 34.575 11.8389 34.5583 11.7194C34.475 11.0194 34.6778 10.225 35.2944 9.675C35.9222 9.11111 36.7111 9.04722 37.2333 9.45278C37.8278 9.91667 37.775 10.7472 37.45 11.3722C37.1194 12.0056 36.575 12.3444 36.05 12.5083C36.05 12.5083 35.9417 12.5333 35.9556 12.6333C35.9778 12.7944 36.6917 13.1889 36.7528 13.2944C36.8111 13.3944 36.7806 13.55 36.6722 13.6694C36.5972 13.7556 36.4778 13.8361 36.3278 13.8333C36.2056 13.8306 36.1306 13.7889 35.975 13.7028C35.6556 13.5278 35.2556 13.2444 34.9861 12.9083C34.8944 12.7944 34.85 12.7917 34.6222 12.8056C33.6 12.8639 32.0028 13.0194 30.9222 13.1528C30.6611 13.1861 30.6222 13.2333 30.5667 13.325C28.8417 16.1667 27.0028 19.2333 24.9833 21.2833C22.8222 23.4861 21.0194 24.0667 19.1083 24.0806ZM35.5333 11.45C35.5611 11.5972 35.6167 11.625 35.6833 11.6111C36.0111 11.5444 36.3722 11.275 36.5833 10.9639C36.7778 10.6806 36.8694 10.2694 36.675 10.1056C36.5028 9.95833 36.225 10 36.0167 10.1833C35.6056 10.5472 35.4806 11.0639 35.5333 11.45ZM40.0028 0C17.8 0 0 6.65556 0 15C0 23.2944 17.9444 30 40.0028 30C62.0611 30 80.0056 23.2722 80.0056 15C80.0056 6.73056 62.0611 0 40.0028 0ZM40.0028 28.8611C18.6861 28.8611 1.35278 22.675 1.35278 15.1083C1.35278 7.54167 18.6861 1.15 40.0028 1.15C61.3194 1.15 78.6583 7.53889 78.6583 15.1083C78.6583 22.675 61.3194 28.8611 40.0028 28.8611Z" fill="white"/>
</svg>